<?xml version="1.0"?>
<svg version="1.1" xmlns="http://www.w3.org/2000/svg" width="60" height="51" style=""><path fill="#" d="M16.13818359375,41.0732421875q-0.01806640625-0.5419921875-0.01806640625-1.083984375q0-1.6982421875,0.1806640625-3.41455078125q0.216796875-2.2763671875,0.2890625-4.48046875q0.072265625-2.58349609375,0.216796875-5.36572265625q0.09033203125-1.517578125,0.09033203125-2.9990234375q0-1.21044921875-0.05419921875-2.40283203125q0.1806640625-0.41552734375,0.478759765625-0.56005859375t0.749755859375-0.14453125q0.216796875,0,0.460693359375,0.0361328125t0.424560546875,0.1806640625q0.2529296875,0.0361328125,0.623291015625,0.072265625t0.569091796875,0.216796875q0.072265625,0.1083984375,0.370361328125,0.74072265625t0.70458984375,1.53564453125t0.84912109375,1.960205078125t0.84912109375,2.00537109375t0.70458984375,1.671142578125t0.370361328125,0.9033203125q1.6982421875-3.0712890625,3.32421875-6.314208984375t3.55908203125-6.115478515625q0.1806640625-0.2529296875,0.623291015625-0.370361328125t0.731689453125-0.117431640625q0.77685546875,0,1.129150390625,0.370361328125t0.460693359375,0.948486328125q0.072265625,0.361328125,0.09033203125,0.77685546875q0.01806640625,0.216796875-0.01806640625,0.45166015625q-0.072265625,0.66845703125-0.072265625,1.2646484375q0,4.20947265625-0.2890625,8.355712890625t-0.52392578125,8.373779296875q-0.0361328125,0.8671875-0.0361328125,1.806640625t0.0361328125,1.951171875q0.01806640625,0.361328125,0.01806640625,0.70458984375q0,1.58984375-0.27099609375,2.962890625q-0.2529296875,0.41552734375-0.8310546875,0.52392578125t-0.9755859375,0.1083984375q-0.84912109375,0-1.6259765625-0.3974609375l-0.19873046875-0.23486328125l-0.072265625-0.2890625t-0.0361328125-0.2890625q0-2.61962890625,0.189697265625-5.275390625t0.424560546875-5.302490234375t0.496826171875-5.284423828125t0.442626953125-5.275390625q-1.06591796875,1.7705078125-2.068603515625,3.604248046875t-1.887939453125,3.730712890625q-0.3251953125,0.74072265625-0.623291015625,1.58984375t-0.713623046875,1.517578125q-0.216796875,0.3251953125-0.731689453125,0.3974609375t-0.894287109375,0.072265625q-0.361328125,0-0.749755859375-0.12646484375t-0.532958984375-0.5419921875q-0.66845703125-2.04150390625-1.42724609375-3.99267578125t-1.53564453125-3.95654296875q0,1.3369140625,0.05419921875,3.459716796875t0.05419921875,4.399169921875t-0.072265625,4.35400390625t-0.34326171875,3.2880859375q-0.072265625,0.45166015625-0.587158203125,0.56005859375t-0.894287109375,0.1083984375q-0.2890625,0-0.551025390625-0.0361328125t-0.514892578125-0.14453125z M36.493061523438,18.29150390625q0-0.2529296875,0.352294921875-0.388427734375t0.460693359375-0.135498046875l0.66845703125-0.1083984375q0.66845703125-0.1083984375,1.35498046875-0.189697265625t1.3369140625-0.153564453125q2.29443359375-0.2890625,4.5888671875-0.569091796875t4.625-0.280029296875q0.1806640625,0,0.496826171875,0.01806640625t0.63232421875,0.099365234375t0.5419921875,0.225830078125t0.225830078125,0.3974609375q0,0.1806640625-0.171630859375,0.316162109375t-0.406494140625,0.207763671875t-0.478759765625,0.09033203125t-0.388427734375,0.01806640625l-0.316162109375,0t-0.316162109375-0.072265625q-0.95751953125,0-1.887939453125,0.09033203125t-1.887939453125,0.16259765625q0.2529296875,0.2890625,0.27099609375,0.81298828125t0.0361328125,0.9033203125q0,6.3955078125,0.09033203125,12.71875t0.16259765625,12.77294921875l0,0.0361328125q-0.59619140625,0.52392578125-1.020751953125,0.66845703125t-0.858154296875,0.14453125q-0.41552734375,0-0.840087890625-0.153564453125t-1.020751953125-0.659423828125l0-0.0361328125l0.14453125-14.18212890625q0-1.4091796875-0.0361328125-3.107421875t-0.0361328125-3.441650390625t0.05419921875-3.369384765625t0.2890625-2.83642578125q-1.06591796875,0.1083984375-2.25830078125,0.3251953125q-1.02978515625,0.1806640625-1.96923828125,0.1806640625l-0.3251953125,0q-0.072265625,0-0.424560546875,0.01806640625t-0.72265625-0.01806640625t-0.66845703125-0.14453125t-0.298095703125-0.361328125z"/><path fill="#" d=""/></svg>
